Coordinates
version=1
nRows=10
nColumns=40
inDegrees=yes

Units are S.I. units (second, meters, Newtons, ...)
If the header above contains a line with 'inDegrees', this indicates whether rotational values are in degrees (yes) or radians (no).

endheader
time	pelvis_tilt	pelvis_list	pelvis_rotation	pelvis_tx	pelvis_ty	pelvis_tz	hip_flexion_r	hip_adduction_r	hip_rotation_r	knee_angle_r	knee_angle_r_beta	ankle_angle_r	subtalar_angle_r	mtp_angle_r	hip_flexion_l	hip_adduction_l	hip_rotation_l	knee_angle_l	knee_angle_l_beta	ankle_angle_l	subtalar_angle_l	mtp_angle_l	lumbar_extension	lumbar_bending	lumbar_rotation	arm_flex_r	arm_add_r	arm_rot_r	elbow_flex_r	pro_sup_r	wrist_flex_r	wrist_dev_r	arm_flex_l	arm_add_l	arm_rot_l	elbow_flex_l	pro_sup_l	wrist_flex_l	wrist_dev_l
     18.19999999999999928946	     17.82671584087208316305	     -8.66785961913152114278	    174.89244812931596584349	      0.26915348372889241757	      0.91860190686893050671	     -0.60004668724609333541	     44.54171514528916020481	    -11.42595393059280439729	      0.29302459380964179791	     31.45821918266393169006	      0.54904950155152509872	      4.66402753826897509271	      0.00000000000000000000	      0.00000000000000000000	     38.93225357696394439699	      0.24089400370855912348	    -12.75495288321746656379	     27.74466936727507970772	      0.48423583033616202087	      6.53542222922183668743	      0.00000000000000000000	      0.00000000000000000000	    -14.72099348253548534160	     -7.79705580927786634504	     -0.73713488638786361928	     22.96051152841583586905	    -15.97634906344373462161	     47.58574674296430373488	     12.85876032473030505798	      7.24766732884504438772	      0.00000000000000000000	      0.00000000000000000000	     29.60864619231349692541	    -20.10745296795699488257	     51.06237008616508177283	     19.25504690905545146506	     87.36974000907143533823	      0.00000000000000000000	      0.00000000000000000000
     18.20499999999999829470	     17.63157716271176411738	     -8.62513676427266418045	    174.89480488113611045264	      0.26803525970868802286	      0.91942117486900920564	     -0.60014435643113628327	     44.19250252450647309388	    -11.40859083210455970914	      0.30374476523430299357	     31.40568249465804839815	      0.54813256336772941957	      4.66987212959011799285	      0.00000000000000000000	      0.00000000000000000000	     38.59932211870462026582	      0.27495878399306433737	    -12.69721283643493592308	     27.67248022126608475446	      0.48297589205410212942	      6.53832760067909113388	      0.00000000000000000000	      0.00000000000000000000	    -14.21383058275204724907	     -7.77684114213373334223	     -0.63901344752023159224	     22.52042924375037813434	    -15.99017599522816190927	     47.56092576716565645256	     12.85135233155684275630	      7.25520967715867204362	      0.00000000000000000000	      0.00000000000000000000	     29.17395077602145647688	    -20.14036636252917844558	     51.09877873672174075637	     19.30471023924613049871	     87.38794343162876998576	      0.00000000000000000000	      0.00000000000000000000
     18.21000000000000085265	     15.62912865270125450934	     -8.45674919068434149949	    174.70505175937415742737	      0.26557021755340626257	      0.92449777227414264846	     -0.60062915179606057858	     41.23179015562702431907	    -11.53602506436022068215	     -0.18817665045514761490	     30.24487734198884680836	      0.52787269147953641557	      4.81616215851934725833	      0.00000000000000000000	      0.00000000000000000000	     35.56379905069042735022	      0.55571637963538444982	    -12.66957945342537250610	     26.14244768066468083134	      0.45627178655795380680	      6.43563058189226921968	      0.00000000000000000000	      0.00000000000000000000	    -15.90016489345532413324	     -7.78855538398387636789	     -0.65497648157700760763	     22.37687385567902609296	    -16.12389948868669620197	     47.39156150235491082867	     13.13716735975826921390	      7.61619122181359209378	      0.00000000000000000000	      0.00000000000000000000	     29.13187618429537195652	    -20.28108306613580325006	     51.24326040822226957516	     19.64136869090812353988	     87.31448072256395676050	      0.00000000000000000000	      0.00000000000000000000
     18.21499999999999985789	     15.46078352087247154145	     -8.43267489855987761871	    174.73931056097760006196	      0.26475638763851089275	      0.92521524124939358291	     -0.60062866800261904832	     40.95493339927033815684	    -11.54750568349167849647	     -0.13907416750544934758	     30.24496493571978916748	      0.52787422027854546958	      4.77482263778910276386	      0.00000000000000000000	      0.00000000000000000000	     35.31713789784608792388	      0.59692067487354472100	    -12.61822821820862827735	     26.14478011014088210118	      0.45631249513188409939	      6.39510816856966446409	      0.00000000000000000000	      0.00000000000000000000	    -15.37432749099852102859	     -7.78380765106632299677	     -0.59969162369636053178	     21.98630396702306910584	    -16.11851726525780037491	     47.39282653204870854324	     13.08292496347091216080	      7.61474343150935339963	      0.00000000000000000000	      0.00000000000000000000	     28.75575679763546688150	    -20.29099892197322319021	     51.27212924741711219667	     19.63180881755274853617	     87.32989038411361093495	      0.00000000000000000000	      0.00000000000000000000
     18.21999999999999886313	     15.33887354345622533458	     -8.41794645771423155622	    174.75305008818520491332	      0.26371812406276906593	      0.92605920857416434977	     -0.60072146910090862271	     40.58218361240850668992	    -11.57631729455439462129	     -0.27061580610196339647	     29.95411481095231209792	      0.52279792797151669603	      4.82609681771308096643	      0.00000000000000000000	      0.00000000000000000000	     34.94039279315745716303	      0.65735652232795038774	    -12.65563760441536445001	     25.79648266261345312955	      0.45023355789623831225	      6.41663133831130050311	      0.00000000000000000000	      0.00000000000000000000	    -14.79082408706217499628	     -7.79751882564851239721	     -0.48389491765501019271	     21.46097166866011818342	    -16.19729316097691906862	     47.35069840406679730904	     13.21711813979016980625	      7.65268278172207416787	      0.00000000000000000000	      0.00000000000000000000	     28.29312289103961219894	    -20.36509529650769678710	     51.17284323587321637206	     19.84670222383896032170	     87.34156637761969932399	      0.00000000000000000000	      0.00000000000000000000
     18.22500000000000142109	     14.13274770095850207952	     -8.51032579581563908278	    174.71506352694285624239	      0.26212709046343413144	      0.92929614356159950805	     -0.60072302159230561713	     38.86971292717174009113	    -11.84808969315674787026	     -0.32306749036051302104	     29.35424605464802993993	      0.51232824309416347131	      4.75928440988259460198	      0.00000000000000000000	      0.00000000000000000000	     33.02147224941499814577	      1.12822023262984094671	    -12.47942440052298351816	     24.65260024421121798355	      0.43026904343944394338	      6.04407404040915441357	      0.00000000000000000000	      0.00000000000000000000	    -15.50353289136441681251	     -7.98697910656280374297	     -0.65561852770133566271	     21.26487279083383796774	    -16.25549109521460522387	     47.62387325803659621215	     13.34554671497042299677	      7.85948560199548129646	      0.00000000000000000000	      0.00000000000000000000	     28.03154381999526378877	    -20.40021425628926365903	     50.75880155236752955261	     19.86734925461756517961	     87.33585489368650200959	      0.00000000000000000000	      0.00000000000000000000
     18.23000000000000042633	     13.95866633630591380211	     -8.47202141643435524543	    174.70156782414545659776	      0.26122876677499479170	      0.93001585446052681405	     -0.60085285771760144069	     38.53766585853720982868	    -11.84221337469388402042	     -0.42386462432686794477	     29.24725739339476149325	      0.51046093869299302703	      4.80286888764348685044	      0.00000000000000000000	      0.00000000000000000000	     32.69175858975889070734	      1.13726303158563957219	    -12.48120477375115555674	     24.52512718391022161768	      0.42804421882959825529	      6.07271814388860775580	      0.00000000000000000000	      0.00000000000000000000	    -14.96438424420090562705	     -7.97868878837183892472	     -0.52877801877743613179	     20.80556185919642686599	    -16.31706901499251571863	     47.58529442030543066267	     13.40909223993901022709	      7.87782376320831545513	      0.00000000000000000000	      0.00000000000000000000	     27.60497086305604597101	    -20.47958710120805392307	     50.73620992420050868077	     20.03319025430807798216	     87.36043970172326567081	      0.00000000000000000000	      0.00000000000000000000
     18.23499999999999943157	     13.76286581831707778178	     -8.44383734976312361198	    174.72675621067872953063	      0.26058260536033894805	      0.93071675137142362289	     -0.60085511156693771628	     38.24354429726341209062	    -11.84783076159578740771	     -0.36263807114841689616	     29.24452458161395185243	      0.51041324212958061324	      4.77349204189093612172	      0.00000000000000000000	      0.00000000000000000000	     32.42169843382515637131	      1.17060464556580234863	    -12.41683995799300532781	     24.51882979428568276603	      0.42793430864636911037	      6.03378822327419328531	      0.00000000000000000000	      0.00000000000000000000	    -14.46640209382760566825	     -7.96670932224450289993	     -0.47534290020407476973	     20.42687114182710672594	    -16.32881622331306203932	     47.57062663196928298248	     13.39511893383082963283	      7.87994313573868865319	      0.00000000000000000000	      0.00000000000000000000	     27.23838550968032024002	    -20.51246176607437732287	     50.73904946352231348783	     20.05123245466864290165	     87.37305284911309399831	      0.00000000000000000000	      0.00000000000000000000
     18.23999999999999843681	     13.52989202580444860757	     -8.43206769946038825481	    174.72857695308593406480	      0.25958087713116495543	      0.93156489205939252418	     -0.60091209182970117819	     37.75396982797128231368	    -11.89754059253407092456	     -0.53106968642959218041	     28.95849030362045795073	      0.50542100220502939045	      4.89443557581295962677	      0.00000000000000000000	      0.00000000000000000000	     31.92844964167879950878	      1.24213255331161365191	    -12.48180492897674120911	     24.16392037807616688383	      0.42173997078718211684	      6.06079797951929410971	      0.00000000000000000000	      0.00000000000000000000	    -14.00546062134509206487	     -7.97619356427845538349	     -0.36422522440414767386	     19.89226170583657804514	    -16.50807422317931383304	     47.38984335141610415576	     13.73828893258097849639	      7.93751994623057655076	      0.00000000000000000000	      0.00000000000000000000	     26.73621249607658612035	    -20.66214774293585776377	     50.48874519399628013616	     20.43809247932755468469	     87.37110329149940923799	      0.00000000000000000000	      0.00000000000000000000
     18.24500000000000099476	     11.82201006422063116474	     -8.43836617262476629264	    174.63456239293662974887	      0.25766509743546328615	      0.93549486805451942395	     -0.60102508354462091944	     35.43206007150624259339	    -12.18125960973498500550	     -0.79832021310882617104	     28.31757353471367011366	      0.49423489435636230871	      4.85903338912993110199	      0.00000000000000000000	      0.00000000000000000000	     29.41574088964089028764	      1.66671956572761015281	    -12.36117877570789502784	     22.96137479139762049840	      0.40075159089431466874	      5.66588606196381583402	      0.00000000000000000000	      0.00000000000000000000	    -15.27569433865418702112	     -8.10567866067528264296	     -0.54169604993781095281	     19.79609780889174786012	    -16.49565009706919127552	     47.20073655802912071522	     13.81487464932301101328	      8.15578261135930127068	      0.00000000000000000000	      0.00000000000000000000	     26.52791738604405935575	    -20.57059796339298429757	     49.59307538632586442873	     20.33787070325556456396	     87.38695961984819859936	      0.00000000000000000000	      0.00000000000000000000
